# xmcd
#
# Track frame offsets:
#	150
#	17440
#	29227
#	43550
#	62952
#	73585
#	89695
#	107335
#	123132
#	139225
#	151402
#	167742
#	181477
#
# Disc length: 2664 seconds
#
# Revision: 0
# Processed by: cddbd v1.5.2PL0 Copyright (c) Steve Scherf et al.
# Submitted via: EasyCDDAExtractor 7.1.2.1
#
DISCID=b10a660d
DTITLE=Various Artist - TM Century - Gold Disc 1145
DYEAR=1900
DGENRE=Country
TTITLE0=McBride and The Ride - Just One Night
TTITLE1=Collin Raye - I Want You Bad (And That Ain't Good)
TTITLE2=Mary Chapin Carpenter - Passionate Kisses
TTITLE3=Alabama - One Upon A Lifetime
TTITLE4=George Strait - Heartland
TTITLE5=Pam Tillis - Let That Pony Run
TTITLE6=Mark Chesnutt - Ol' Country
TTITLE7=Billy Ray Cyrus - She's Not Cryin' Anymore
TTITLE8=Radney Foster - Nobody Wins
TTITLE9=Tanya Tucker - It's A Little Too Late
TTITLE10=Clint Black - When My Ship Comes In
TTITLE11=Brooks and Dunn - Hard Workin' Man
TTITLE12=Garth Brooks - Learning To Live Again
EXTD=
EXTT0=
EXTT1=
EXTT2=
EXTT3=
EXTT4=
EXTT5=
EXTT6=
EXTT7=
EXTT8=
EXTT9=
EXTT10=
EXTT11=
EXTT12=
PLAYORDER=
